# Blender v2.75 (sub 0) OBJ File: 'untitled.blend'
# www.blender.org
mtllib test1.mtl
o Cube
v 1.000000 -1.000000 -1.000000
v 1.000000 -1.000000 1.000000
v -1.000000 -1.000000 1.000000
v -1.000000 -1.000000 -1.000000
v 1.000000 1.000000 -0.999999
v 0.999999 1.000000 1.000001
v -1.000000 1.000000 1.000000
v -1.000000 1.000000 -1.000000
vt 0.318182 0.681818
vt 0.318182 0.984848
vt 0.015152 0.984848
vt 0.984848 0.318182
vt 0.681818 0.318182
vt 0.681818 0.015152
vt 0.348485 0.318182
vt 0.348485 0.015152
vt 0.651515 0.015152
vt 0.015152 0.015152
vt 0.318182 0.015152
vt 0.318182 0.318182
vt 0.651515 0.651515
vt 0.348485 0.651515
vt 0.348485 0.348485
vt 0.318182 0.348485
vt 0.318182 0.651515
vt 0.015152 0.651515
vt 0.015152 0.681818
vt 0.984848 0.015152
vt 0.651515 0.318182
vt 0.015152 0.318182
vt 0.651515 0.348485
vt 0.015152 0.348485
vn 0.000000 -1.000000 0.000000
vn 0.000000 1.000000 0.000000
vn 1.000000 0.000000 0.000000
vn -0.000000 0.000000 1.000000
vn -1.000000 -0.000000 -0.000000
vn 0.000000 0.000000 -1.000000
usemtl Material
s off
f 2/1/1 3/2/1 4/3/1
f 8/4/2 7/5/2 6/6/2
f 5/7/3 6/8/3 2/9/3
f 6/10/4 7/11/4 3/12/4
f 3/13/5 7/14/5 8/15/5
f 1/16/6 4/17/6 8/18/6
f 1/19/1 2/1/1 4/3/1
f 5/20/2 8/4/2 6/6/2
f 1/21/3 5/7/3 2/9/3
f 2/22/4 6/10/4 3/12/4
f 4/23/5 3/13/5 8/15/5
f 5/24/6 1/16/6 8/18/6
